<svg xmlns="http://www.w3.org/2000/svg">
    <symbol id="add-new" viewBox="0 0 24 24">
        <path d="M12 2C6.49 2 2 6.49 2 12C2 17.51 6.49 22 12 22C17.51 22 22 17.51 22 12C22 6.49 17.51 2 12 2ZM16 12.75H12.75V16C12.75 16.41 12.41 16.75 12 16.75C11.59 16.75 11.25 16.41 11.25 16V12.75H8C7.59 12.75 7.25 12.41 7.25 12C7.25 11.59 7.59 11.25 8 11.25H11.25V8C11.25 7.59 11.59 7.25 12 7.25C12.41 7.25 12.75 7.59 12.75 8V11.25H16C16.41 11.25 16.75 11.59 16.75 12C16.75 12.41 16.41 12.75 16 12.75Z" fill="#1bd760"/>
    </symbol>
    <symbol id="search" viewBox="0 0 24 24">
        <path d="M17 17L21 21" stroke="#a7a7a7" stroke-width="2" stroke-linecap="round" stroke-linejoin="round"/>
        <path d="M19 11C19 15.4183 15.4183 19 11 19C6.58172 19 3 15.4183 3 11C3 6.58172 6.58172 3 11 3C15.4183 3 19 6.58172 19 11Z" stroke="#a7a7a7" stroke-width="2"/>
    </symbol>
    <symbol id="dropdown" viewBox="0 0 1024 1024">
        <path d="M620.6 562.3l36.2 36.2L512 743.3 367.2 598.5l36.2-36.2L512 670.9l108.6-108.6zM512 353.1l108.6 108.6 36.2-36.2L512 280.7 367.2 425.5l36.2 36.2L512 353.1z" fill="#a7a7a7"/>
    </symbol>
    <symbol id="close-button" viewBox="0 0 24 24">
        <path fill-rule="evenodd" clip-rule="evenodd" d="M19.207 6.207a1 1 0 0 0-1.414-1.414L12 10.586 6.207 4.793a1 1 0 0 0-1.414 1.414L10.586 12l-5.793 5.793a1 1 0 1 0 1.414 1.414L12 13.414l5.793 5.793a1 1 0 0 0 1.414-1.414L13.414 12l5.793-5.793z" fill="#121212"/>
    </symbol>
</svg>